HIERARCHY
ROOT Hips
{
	OFFSET 0.0000 0.0000 0.0000
	CHANNELS 6 Xposition Yposition Zposition Yrotation Xrotation Zrotation
	JOINT Spine
	{
		OFFSET 0.0000 10.0000 0.0000
		CHANNELS 3 Yrotation Xrotation Zrotation
		JOINT Chest
		{
			OFFSET 0.0000 15.0000 0.0000
			CHANNELS 3 Yrotation Xrotation Zrotation
			JOINT Neck
			{
				OFFSET 0.0000 22.0000 0.0000
				CHANNELS 3 Yrotation Xrotation Zrotation
				JOINT Head
				{
					OFFSET 0.0000 10.0000 0.0000
					CHANNELS 3 Yrotation Xrotation Zrotation
					End Site
					{
						OFFSET 0.0000 18.0000 0.0000
					}
				}
			}
			JOINT LeftShoulder
			{
				OFFSET 3.0000 18.0000 0.0000
				CHANNELS 3 Yrotation Xrotation Zrotation
				JOINT LeftArm
				{
					OFFSET 13.0000 0.0000 0.0000
					CHANNELS 3 Yrotation Xrotation Zrotation
					JOINT LeftForeArm
					{
						OFFSET 29.0000 0.0000 0.0000
						CHANNELS 3 Yrotation Xrotation Zrotation
						JOINT LeftHand
						{
							OFFSET 26.0000 0.0000 0.0000
							CHANNELS 3 Yrotation Xrotation Zrotation
							End Site
							{
								OFFSET 17.0000 0.0000 0.0000
							}
						}
					}
				}
			}
			JOINT RightShoulder
			{
				OFFSET -3.0000 18.0000 0.0000
				CHANNELS 3 Yrotation Xrotation Zrotation
				JOINT RightArm
				{
					OFFSET -13.0000 0.0000 0.0000
					CHANNELS 3 Yrotation Xrotation Zrotation
					JOINT RightForeArm
					{
						OFFSET -29.0000 0.0000 0.0000
						CHANNELS 3 Yrotation Xrotation Zrotation
						JOINT RightHand
						{
							OFFSET -26.0000 0.0000 0.0000
							CHANNELS 3 Yrotation Xrotation Zrotation
							End Site
							{
								OFFSET -17.0000 0.0000 0.0000
							}
						}
					}
				}
			}
		}
	}
	JOINT LeftUpLeg
	{
		OFFSET 9.0000 -3.0000 0.0000
		CHANNELS 3 Yrotation Xrotation Zrotation
		JOINT LeftLeg
		{
			OFFSET 0.0000 -42.0000 0.0000
			CHANNELS 3 Yrotation Xrotation Zrotation
			JOINT LeftFoot
			{
				OFFSET 0.0000 -42.0000 0.0000
				CHANNELS 3 Yrotation Xrotation Zrotation
				JOINT LeftToeBase
				{
					OFFSET 0.0000 -7.0000 13.0000
					CHANNELS 3 Yrotation Xrotation Zrotation
					End Site
					{
						OFFSET 0.0000 0.0000 7.0000
					}
				}
			}
		}
	}
	JOINT RightUpLeg
	{
		OFFSET -9.0000 -3.0000 0.0000
		CHANNELS 3 Yrotation Xrotation Zrotation
		JOINT RightLeg
		{
			OFFSET 0.0000 -42.0000 0.0000
			CHANNELS 3 Yrotation Xrotation Zrotation
			JOINT RightFoot
			{
				OFFSET 0.0000 -42.0000 0.0000
				CHANNELS 3 Yrotation Xrotation Zrotation
				JOINT RightToeBase
				{
					OFFSET 0.0000 -7.0000 13.0000
					CHANNELS 3 Yrotation Xrotation Zrotation
					End Site
					{
						OFFSET 0.0000 0.0000 7.0000
					}
				}
			}
		}
	}
}
MOTION
Frames: 22
Frame Time: 0.0333333
44.3717 85.4074 860.1418 66.5556 5.7778 -7.4800 0.8667 5.7490 0.0000 7.9052 5.1660 0.0000 5.9360 -5.7490 0.0000 5.9360 -3.1662 0.0000 0.0000 0.0000 0.0000 0.0000 9.6296 -60.9128 -71.9679 0.0000 0.0000 0.0000 0.0000 0.0000 0.0000 0.0000 0.0000 0.0000 -11.6296 60.9128 71.9679 0.0000 0.0000 0.0000 0.0000 0.0000 -2.0603 -24.4853 4.9607 0.0000 53.2714 0.0000 9.8879 -34.5113 -2.6588 0.0000 -0.0000 0.0000 -26.5763 -51.3891 32.6269 0.0000 96.6261 0.0000 -11.5352 -44.0655 -3.6741 0.0000 -3.4815 0.0000
47.3388 86.5405 861.1366 69.2597 5.5658 -7.1230 0.4943 5.5833 0.0000 7.0673 5.0555 0.0000 5.4373 -5.5833 0.0000 5.4373 -3.0370 0.0000 0.0000 0.0000 0.0000 0.0000 5.4920 -61.0991 -72.1439 0.0000 0.0000 0.0000 0.0000 0.0000 0.0000 0.0000 0.0000 0.0000 -7.4920 61.0991 72.1439 0.0000 0.0000 0.0000 0.0000 0.0000 -1.6064 -19.7032 4.7549 0.0000 48.1712 0.0000 6.6158 -34.0519 -1.0692 0.0000 -0.0000 0.0000 -23.6694 -51.4638 29.2651 0.0000 94.2094 0.0000 -7.8279 -46.9632 -5.0162 0.0000 -0.0000 0.0000
50.3605 87.5583 862.1556 71.9651 5.3786 -6.7037 0.1000 5.4167 0.0000 6.2202 4.9445 0.0000 5.1147 -5.4167 0.0000 5.1147 -2.9124 0.0000 0.0000 0.0000 0.0000 0.0000 1.1106 -61.2963 -72.3216 0.0000 0.0000 0.0000 0.0000 0.0000 0.0000 0.0000 0.0000 0.0000 -3.1106 61.2963 72.3216 0.0000 0.0000 0.0000 0.0000 0.0000 -1.2048 -14.7332 4.7271 0.0000 42.5682 0.0000 3.3875 -33.2023 0.2678 0.0000 -0.0261 0.0000 -20.0513 -51.8821 24.8875 0.0000 85.7795 0.0000 -3.7649 -43.1145 -6.0917 0.0000 -0.0000 0.0000
53.4444 88.0000 863.2376 74.6249 5.2222 -6.2400 -0.2988 5.2510 0.0000 5.4025 4.8340 0.0000 5.0000 -5.2510 0.0000 5.0000 -2.7930 0.0000 0.0000 0.0000 0.0000 0.0000 -3.3196 -61.5026 -72.5000 0.0000 0.0000 0.0000 0.0000 0.0000 0.0000 0.0000 0.0000 0.0000 1.3196 61.5026 72.5000 0.0000 0.0000 0.0000 0.0000 0.0000 -1.1379 -13.2983 4.9352 0.0000 43.4673 0.0000 0.4415 -29.7188 1.1817 0.0000 -5.6334 0.0000 -16.5040 -54.0230 20.1091 0.0000 71.8754 0.0000 -1.1001 -29.5258 -5.0368 0.0000 -0.0000 0.0000
56.5940 86.5486 864.4185 77.1923 5.1029 -5.7496 -0.6843 5.0881 0.0000 4.5549 4.7254 0.0000 4.9363 -5.0881 0.0000 4.9363 -2.6794 0.0000 0.0000 0.0000 0.0000 0.0000 -7.6035 -61.7165 -72.6784 0.0000 0.0000 0.0000 0.0000 0.0000 0.0000 0.0000 0.0000 0.0000 5.6035 61.7165 72.6784 0.0000 0.0000 0.0000 0.0000 0.0000 -1.5433 -16.5830 5.3927 0.0000 53.5549 0.0000 -2.2190 -25.9023 2.1478 0.0000 -16.0543 0.0000 -11.5173 -55.2206 13.9331 0.0000 57.4043 0.0000 0.3201 -13.8936 -2.1908 0.0000 -0.0000 0.0000
59.7861 86.7950 865.7127 79.6202 5.0267 -5.2504 -1.0391 4.9297 0.0000 3.6302 4.6198 0.0000 4.7570 -4.9297 0.0000 4.7570 -2.5723 0.0000 0.0000 0.0000 0.0000 0.0000 -11.5460 -61.9362 -72.8561 0.0000 0.0000 0.0000 0.0000 0.0000 0.0000 0.0000 0.0000 0.0000 9.5460 61.9362 72.8561 0.0000 0.0000 0.0000 0.0000 0.0000 -1.6615 -16.0704 5.9820 0.0000 55.3543 0.0000 -4.6635 -20.0543 3.0196 0.0000 -24.0774 0.0000 -5.7599 -51.4595 7.3483 0.0000 42.8409 0.0000 1.4726 -2.1235 0.7790 0.0000 -0.0000 0.0000
62.9227 88.0373 867.0191 81.8618 5.0000 -4.7600 -1.3457 4.7778 0.0000 2.6846 4.5185 0.0000 4.4800 -4.7778 0.0000 4.4800 -2.4723 0.0000 0.0000 0.0000 0.0000 0.0000 -14.9520 -62.1600 -73.0321 0.0000 0.0000 0.0000 0.0000 0.0000 0.0000 0.0000 0.0000 0.0000 12.9520 62.1600 73.0321 0.0000 0.0000 0.0000 0.0000 0.0000 -1.3271 -11.4661 6.6474 0.0000 49.8758 0.0000 -7.1727 -18.7948 3.4883 0.0000 -24.4365 0.0000 -3.2203 -48.5539 4.2926 0.0000 41.1384 0.0000 2.6299 -1.6003 2.0301 0.0000 -0.0000 0.0000
66.0708 88.2507 868.3042 83.8703 4.9949 -4.2963 -1.5864 4.6340 0.0000 1.7748 4.4227 0.0000 4.1230 -4.6340 0.0000 4.1230 -2.3801 0.0000 0.0000 0.0000 0.0000 0.0000 -17.6264 -62.3864 -73.2056 0.0000 0.0000 0.0000 0.0000 0.0000 0.0000 0.0000 0.0000 0.0000 15.6264 62.3864 73.2056 0.0000 0.0000 0.0000 0.0000 0.0000 -1.0989 -8.3161 7.5549 0.0000 48.9627 0.0000 -9.7050 -23.9838 4.0533 0.0000 -21.5086 0.0000 -1.7402 -43.5400 2.5253 0.0000 36.9711 0.0000 3.3909 -0.6271 2.5485 0.0000 -0.0000 0.0000
69.3185 87.3740 869.5518 85.5986 4.9803 -3.8770 -1.7437 4.5004 0.0000 0.9571 4.3336 0.0000 3.7037 -4.5004 0.0000 3.7037 -2.2963 0.0000 0.0000 0.0000 0.0000 0.0000 -19.3741 -62.6136 -73.3760 0.0000 0.0000 0.0000 0.0000 0.0000 0.0000 0.0000 0.0000 0.0000 17.3741 62.6136 73.3760 0.0000 0.0000 0.0000 0.0000 0.0000 -1.2631 -8.2692 8.7156 0.0000 54.2095 0.0000 -12.4584 -33.6191 5.1758 0.0000 -17.1424 0.0000 -1.0623 -39.2597 1.6783 0.0000 34.0471 0.0000 3.5102 -0.5116 2.5778 0.0000 -0.0000 0.0000
72.7502 85.4074 870.7463 87.0000 4.9570 -3.5200 -1.8000 4.3786 0.0000 0.2880 4.2524 0.0000 3.2400 -4.3786 0.0000 3.2400 -2.2216 0.0000 0.0000 0.0000 0.0000 0.0000 -20.0000 -62.8400 -73.5423 0.0000 0.0000 0.0000 0.0000 0.0000 0.0000 0.0000 0.0000 0.0000 18.0000 62.8400 73.5423 0.0000 0.0000 0.0000 0.0000 0.0000 -3.0998 -17.8762 10.0054 0.0000 70.0170 0.0000 -15.4698 -44.1487 7.1693 0.0000 -12.5466 0.0000 -0.9760 -40.3189 1.5081 0.0000 41.0975 0.0000 2.8073 -5.8384 2.0783 0.0000 -0.0000 0.0000
76.4483 83.3254 871.8725 88.0668 4.9259 -3.2430 -1.7541 4.2705 0.0000 -0.2087 4.1804 0.0000 2.7496 -4.2705 0.0000 2.7496 -2.1566 0.0000 0.0000 0.0000 0.0000 0.0000 -19.5413 -63.0638 -73.7037 0.0000 0.0000 0.0000 0.0000 0.0000 0.0000 0.0000 0.0000 0.0000 17.5668 63.0638 73.7037 0.0000 0.0000 0.0000 0.0000 0.0000 -6.4128 -32.8828 11.6961 0.0000 87.3150 0.0000 -17.2175 -49.6846 8.3200 0.0000 -8.9298 0.0000 -1.2201 -43.0348 1.7876 0.0000 51.5696 0.0000 1.8161 -13.5026 1.5061 0.0000 -0.0000 0.0000
80.4965 84.1448 872.9160 88.8456 4.8879 -3.0637 -1.6251 4.1780 0.0000 -0.5497 4.1187 0.0000 2.2504 -4.1780 0.0000 2.2504 -2.1019 0.0000 0.0000 0.0000 0.0000 0.0000 -18.2507 -63.2835 -73.8595 0.0000 0.0000 0.0000 0.0000 0.0000 0.0000 0.0000 0.0000 0.0000 16.3479 63.2835 73.8595 0.0000 0.0000 0.0000 0.0000 0.0000 -10.2440 -47.8389 13.7015 0.0000 96.1058 0.0000 -15.2099 -44.8238 6.0609 0.0000 -7.4994 0.0000 -1.4444 -39.7807 2.2567 0.0000 51.6614 0.0000 1.0870 -16.7692 1.0114 0.0000 -0.0000 0.0000
84.9795 84.5000 873.8627 89.3707 4.8438 -3.0000 -1.4256 4.1029 0.0000 -0.7392 4.0686 0.0000 1.7600 -4.1029 0.0000 1.7600 -2.0583 0.0000 0.0000 0.0000 0.0000 0.0000 -16.2560 -63.4974 -74.0087 0.0000 0.0000 0.0000 0.0000 0.0000 0.0000 0.0000 0.0000 0.0000 14.4640 63.4974 74.0087 0.0000 0.0000 0.0000 0.0000 0.0000 -14.6324 -60.1939 16.7460 0.0000 100.4060 0.0000 -12.8198 -37.9891 3.7431 0.0000 -6.1356 0.0000 -1.7060 -36.6357 2.8574 0.0000 52.4653 0.0000 0.6086 -20.6456 0.4903 0.0000 -0.0000 0.0000
89.8684 84.9417 874.7106 89.6763 4.7944 -2.9410 -1.1685 4.0469 0.0000 -0.7815 4.0313 0.0000 1.2963 -4.0469 0.0000 1.2963 -2.0263 0.0000 0.0000 0.0000 0.0000 0.0000 -13.6853 -63.7037 -74.1507 0.0000 0.0000 0.0000 0.0000 0.0000 0.0000 0.0000 0.0000 0.0000 12.0361 63.7037 74.1507 0.0000 0.0000 0.0000 0.0000 0.0000 -16.7343 -65.5090 18.2833 0.0000 100.6860 0.0000 -11.1975 -36.1568 2.5420 0.0000 -2.8769 0.0000 -1.8192 -32.6377 3.3704 0.0000 52.1375 0.0000 0.3455 -24.2493 -0.0390 0.0000 -0.0000 0.0000
95.0377 85.9595 875.4532 89.7968 4.7407 -2.7778 -0.8667 4.0120 0.0000 -0.6809 4.0080 0.0000 0.8770 -4.0120 0.0000 0.8770 -2.0067 0.0000 0.0000 0.0000 0.0000 0.0000 -10.6667 -63.9009 -74.2846 0.0000 0.0000 0.0000 0.0000 0.0000 0.0000 0.0000 0.0000 0.0000 9.1852 63.9009 74.2846 0.0000 0.0000 0.0000 0.0000 0.0000 -13.6875 -61.6648 15.4665 0.0000 98.9095 0.0000 -10.3973 -42.4770 2.3811 0.0000 -0.0000 0.0000 -1.6421 -27.0587 3.6060 0.0000 48.9192 0.0000 0.2672 -26.5533 -0.5510 0.0000 -0.0000 0.0000
100.4315 87.0926 876.0995 89.7663 4.6836 -2.5313 -0.5328 4.0000 0.0000 -0.4416 4.0000 0.0000 0.5200 -4.0000 0.0000 0.5200 -2.0000 0.0000 0.0000 0.0000 0.0000 0.0000 -7.3280 -64.0872 -74.4096 0.0000 0.0000 0.0000 0.0000 0.0000 0.0000 0.0000 0.0000 0.0000 6.0320 64.0872 74.4096 0.0000 0.0000 0.0000 0.0000 0.0000 -10.2978 -57.4973 12.1577 0.0000 93.2605 0.0000 -8.7768 -45.0504 1.6942 0.0000 -0.0000 0.0000 -1.2755 -20.5089 3.6363 0.0000 43.7864 0.0000 0.3452 -27.9186 -1.0330 0.0000 -0.0000 0.0000
105.9952 87.8800 876.6590 89.6192 4.6238 -2.2222 -0.1797 3.9983 0.0000 -0.0679 3.9983 0.0000 0.2430 -3.9967 0.0000 0.2430 -1.9997 0.0000 0.0000 0.0000 0.0000 0.0000 -3.7973 -64.2609 -74.5249 0.0000 0.0000 0.0000 0.0000 0.0000 0.0000 0.0000 0.0000 0.0000 2.6975 64.2609 74.5249 0.0000 0.0000 0.0000 0.0000 0.0000 -7.5706 -56.3935 9.0667 0.0000 84.9779 0.0000 -6.4716 -40.5421 0.7548 0.0000 -0.0000 0.0000 -0.9501 -15.3800 3.5781 0.0000 41.0594 0.0000 0.4595 -27.0069 -1.4575 0.0000 -3.2585 0.0000
111.6748 86.4828 877.1389 89.3896 4.5624 -1.8715 0.1797 3.9934 0.0000 0.4359 3.9934 0.0000 0.0637 -3.9868 0.0000 0.0637 -1.9989 0.0000 0.0000 0.0000 0.0000 0.0000 -0.2027 -64.4205 -74.6296 0.0000 0.0000 0.0000 0.0000 0.0000 0.0000 0.0000 0.0000 0.0000 -0.6975 64.4205 74.6296 0.0000 0.0000 0.0000 0.0000 0.0000 -5.4020 -58.4409 6.3326 0.0000 78.7833 0.0000 -4.5314 -32.7044 0.4703 0.0000 -0.0000 0.0000 -1.0156 -16.4738 3.5771 0.0000 50.3688 0.0000 0.3910 -25.0207 -1.8469 0.0000 -13.3922 0.0000
117.4165 86.2516 877.5461 89.1120 4.5000 -1.5000 0.5328 3.9854 0.0000 1.0656 3.9854 0.0000 0.0000 -3.9708 0.0000 0.0000 -1.9976 0.0000 0.0000 0.0000 0.0000 0.0000 3.3280 -64.5642 -74.7230 0.0000 0.0000 0.0000 0.0000 0.0000 0.0000 0.0000 0.0000 0.0000 -4.0320 64.5642 74.7230 0.0000 0.0000 0.0000 0.0000 0.0000 -2.5973 -57.9103 3.0649 0.0000 68.6681 0.0000 -2.9639 -22.4253 0.6559 0.0000 -0.0000 0.0000 -0.8524 -14.5385 3.3919 0.0000 53.1516 0.0000 0.2717 -20.1770 -2.1313 0.0000 -22.8931 0.0000
123.1651 88.6229 877.8879 88.7956 4.4376 -1.1285 0.8667 3.9745 0.0000 1.7333 3.9745 0.0000 0.0000 -3.9490 0.0000 0.0000 -1.9958 0.0000 0.0000 0.0000 0.0000 0.0000 6.6667 -64.6904 -74.8043 0.0000 0.0000 0.0000 0.0000 0.0000 0.0000 0.0000 0.0000 0.0000 -7.1852 64.6904 74.8043 0.0000 0.0000 0.0000 0.0000 0.0000 -0.3935 -51.8375 0.5005 0.0000 52.7293 0.0000 -1.6364 -11.2873 0.9737 0.0000 -0.0000 0.0000 -0.2698 -5.2613 2.9399 0.0000 41.3577 0.0000 0.4855 -15.7133 -2.3231 0.0000 -24.7855 0.0000
128.8655 90.1973 878.1715 88.4493 4.3762 -0.7778 1.1685 3.9609 0.0000 2.3371 3.9609 0.0000 0.0000 -3.9217 0.0000 0.0000 -1.9934 0.0000 0.0000 0.0000 0.0000 0.0000 9.6853 -64.7974 -74.8726 0.0000 0.0000 0.0000 0.0000 0.0000 0.0000 0.0000 0.0000 0.0000 -10.0361 64.7974 74.8726 0.0000 0.0000 0.0000 0.0000 0.0000 0.5152 -46.7993 -0.7067 0.0000 44.0921 0.0000 -0.4273 -6.1103 1.2741 0.0000 -0.0000 0.0000 0.2229 5.0805 2.5158 0.0000 28.5629 0.0000 0.9203 -15.3102 -2.4818 0.0000 -22.6716 0.0000
134.4619 90.6817 878.4038 88.1061 4.3164 -0.4687 1.4256 3.9446 0.0000 2.8512 3.9446 0.0000 0.0000 -3.8892 0.0000 0.0000 -1.9906 0.0000 0.0000 0.0000 0.0000 0.0000 12.2560 -64.8835 -74.9271 0.0000 0.0000 0.0000 0.0000 0.0000 0.0000 0.0000 0.0000 0.0000 -12.4640 64.8835 74.9271 0.0000 0.0000 0.0000 0.0000 0.0000 0.7847 -44.3423 -1.1227 0.0000 46.6055 0.0000 0.6986 -9.4438 1.1894 0.0000 -0.0000 0.0000 0.5125 13.8750 2.1364 0.0000 19.3182 0.0000 1.4561 -18.4237 -2.6312 0.0000 -19.0370 0.0000
